<svg xmlns="http://www.w3.org/2000/svg" xmlns:xlink="http://www.w3.org/1999/xlink" id="servicesvg" x="0px" y="0px" viewBox="0 0 124.4 99.4" xml:space="preserve" height="100%" width="100%">
		<g>
			<g>
				<path fill="none" stroke="#f63c25" stroke-width="2" stroke-linecap="round" stroke-linejoin="round" stroke-miterlimit="10" d="      M14.1,26.9c0,2.5-2,4.5-4.5,4.5h0c-2.5,0-4.5-2-4.5-4.5v-19c0-2.5,2-4.5,4.5-4.5h0c2.5,0,4.5,2,4.5,4.5" style="stroke-dasharray: 48, 448; stroke-dashoffset: 0;"></path>
				<path fill="none" stroke="#f63c25" stroke-width="2" stroke-miterlimit="10" d="M20,33.7h-1.5c-2.5,0-4.5-2-4.5-4.5V5.5      c0-2.5,2-4.5,4.5-4.5H20c2.5,0,4.5,2,4.5,4.5v23.8C24.5,31.7,22.5,33.7,20,33.7z" style="stroke-dasharray: 79, 479; stroke-dashoffset: 0;"></path>
				
					<path fill="none" stroke="#f63c25" stroke-width="2" stroke-linecap="round" stroke-linejoin="round" stroke-miterlimit="10" d="M5.1,17.3L1,17.3" style="stroke-dasharray: 5, 405; stroke-dashoffset: 0;"></path>
				<path fill="none" stroke="#f63c25" stroke-width="2" stroke-linecap="round" stroke-linejoin="round" stroke-miterlimit="10" d="      M110.4,26.9c0,2.5,2,4.5,4.5,4.5h0c2.5,0,4.5-2,4.5-4.5v-19c0-2.5-2-4.5-4.5-4.5h0c-2.5,0-4.5,2-4.5,4.5" style="stroke-dasharray: 48, 448; stroke-dashoffset: 0;"></path>
				<path fill="none" stroke="#f63c25" stroke-width="2" stroke-miterlimit="10" d="M104.4,33.7h1.5c2.5,0,4.5-2,4.5-4.5V5.5      c0-2.5-2-4.5-4.5-4.5h-1.5c-2.5,0-4.5,2-4.5,4.5v23.8C99.9,31.7,101.9,33.7,104.4,33.7z" style="stroke-dasharray: 79, 479; stroke-dashoffset: 0;"></path>
				
					<path fill="none" stroke="#f63c25" stroke-width="2" stroke-linecap="round" stroke-linejoin="round" stroke-miterlimit="10" d="M119.3,17.3L123.4,17.3" style="stroke-dasharray: 5, 405; stroke-dashoffset: 0;"></path>
				
					<path fill="none" stroke="#f63c25" stroke-width="2" stroke-linecap="round" stroke-linejoin="round" stroke-miterlimit="10" d="M24.5,17.3L99.9,17.3" style="stroke-dasharray: 76, 476; stroke-dashoffset: 0;"></path>
			</g>
			
				<path fill="none" stroke="#f63c25" stroke-width="1.9413" stroke-linecap="round" stroke-linejoin="round" stroke-miterlimit="10" d="     M78.1,81.8H46.3c-2,0-3.5-1.9-3.1-3.9l6.1-27.3c0.9-4.3,4.8-7.4,9.2-7.4h7.7c4.4,0,8.2,3.1,9.2,7.4l5.9,27.2     C81.7,79.9,80.1,81.8,78.1,81.8z" style="stroke-dasharray: 133, 533; stroke-dashoffset: 0;"></path>
			<g>
				
					<path fill="none" stroke="#f63c25" stroke-width="1.9413" stroke-linecap="round" stroke-linejoin="round" stroke-miterlimit="10" d="M43.1,78.7L43.1,98.5" style="stroke-dasharray: 20, 420; stroke-dashoffset: 0;"></path>
				
					<path fill="none" stroke="#f63c25" stroke-width="1.9413" stroke-linecap="round" stroke-linejoin="round" stroke-miterlimit="10" d="M81.3,78.7L81.3,98.5" style="stroke-dasharray: 20, 420; stroke-dashoffset: 0;"></path>
			</g>
			<g>
				
					<path fill="none" stroke="#f63c25" stroke-width="2" stroke-linecap="round" stroke-linejoin="round" stroke-miterlimit="10" d="M30.9,63.9L46.2,63.9" style="stroke-dasharray: 16, 416; stroke-dashoffset: 0;"></path>
				
					<path fill="none" stroke="#f63c25" stroke-width="2" stroke-linecap="round" stroke-linejoin="round" stroke-miterlimit="10" d="M78.3,63.9L93.6,63.9" style="stroke-dasharray: 16, 416; stroke-dashoffset: 0;"></path>
				
					<path fill="none" stroke="#f63c25" stroke-width="2" stroke-linecap="round" stroke-linejoin="round" stroke-miterlimit="10" d="M38.5,63.9L38.5,17.3" style="stroke-dasharray: 47, 447; stroke-dashoffset: 0;"></path>
				
					<path fill="none" stroke="#f63c25" stroke-width="2" stroke-linecap="round" stroke-linejoin="round" stroke-miterlimit="10" d="M86.7,63.9L86.7,17.3" style="stroke-dasharray: 47, 447; stroke-dashoffset: 0;"></path>
			</g>
		</g>
		</svg>