<svg xmlns="http://www.w3.org/2000/svg" xmlns:xlink="http://www.w3.org/1999/xlink" id="Layer_1" x="0px" y="0px" viewBox="0 0 53 55" style="enable-background:new 0 0 53 55;" xml:space="preserve">
<style type="text/css">
	.st0{fill:#FFFFFF;}
</style>
<title>icon3</title>
<path class="st0" d="M52.1,11.9H31.6c1-1.3,1.6-2.9,1.6-4.6c0.1-4-2.9-7.3-6.9-7.5S19,2.8,18.9,6.8c0,0.2,0,0.4,0,0.5  c0,1.7,0.6,3.3,1.6,4.6H0.9c-0.5,0-0.9,0.4-0.9,0.9c0,0,0,0,0,0c0,3.5,2.8,6.4,6.3,6.4h10.8v11c0,1.7,0.5,3.4,1.5,4.8L6.4,53.6  c-0.2,0.3-0.2,0.7-0.1,1C6.5,54.9,6.9,55,7.2,55h7.2c0.3,0,0.6-0.2,0.8-0.4l10.5-16.1h11.2v15.6c0,0.5,0.4,0.9,0.9,0.9c0,0,0,0,0,0  H44c0.5,0,0.9-0.4,0.9-0.9c0,0,0,0,0,0V34.8c0-2.5-2-4.5-4.5-4.6h-6.3v-11h12.6c3.5,0,6.3-2.9,6.3-6.4c0,0,0,0,0,0  C53,12.3,52.6,11.9,52.1,11.9C52.1,11.9,52.1,11.9,52.1,11.9z M26.1,1.8c3,0,5.4,2.5,5.4,5.5c0,1.9-1,3.7-2.6,4.7  c-1.7,1-3.8,1-5.5,0c-1.6-1-2.6-2.8-2.6-4.7C20.7,4.3,23.1,1.9,26.1,1.8L26.1,1.8z M13.9,53.2h-5l10.9-16.8c1.1,1,2.4,1.6,3.8,1.9  L13.9,53.2z M46.7,17.4H33.2c-0.5,0-0.9,0.4-0.9,0.9v11.9h-5.4v1.8h13.5c1.5,0,2.7,1.2,2.7,2.8v18.3h-4.5V37.6  c0-0.5-0.4-0.9-0.9-0.9c0,0,0,0,0,0H25.1c-3.5,0-6.3-2.9-6.3-6.4V18.3c0-0.5-0.4-0.9-0.9-0.9c0,0,0,0,0,0H6.3c-2.2,0-4-1.6-4.4-3.7  h20.7c2.2,1.2,4.8,1.2,6.9,0h21.6C50.7,15.9,48.9,17.4,46.7,17.4z M33.2,55H35v-1.8h-1.8L33.2,55z M29.6,55h1.8v-1.8h-1.8V55z   M26,55h1.8v-1.8H26V55z"></path>
</svg>