<svg xmlns="http://www.w3.org/2000/svg" xmlns:xlink="http://www.w3.org/1999/xlink" id="Layer_1" x="0px" y="0px" viewBox="0 0 95.8 102" xml:space="preserve" height="100%" width="100%">
<g>
	
		<path fill="none" stroke="#f63c25" stroke-width="2" stroke-linecap="round" stroke-linejoin="round" stroke-miterlimit="10" d="M34.8,13A12,12 0,1,1 58.8,13A12,12 0,1,1 34.8,13" style="stroke-dasharray: 76, 476; stroke-dashoffset: 0;"></path>
	<path fill="none" stroke="#f63c25" stroke-width="2" stroke-linejoin="round" stroke-miterlimit="10" d="M39.7,22.6H1V23   c0,6.2,5.1,11.3,11.3,11.3h19.6V55c0,8.3,6.7,15,15,15h18.6c1.3,0,2.3,1,2.3,2.3V101H80V65.5c0-4.1-3.4-7.5-7.5-7.5H48.6" style="stroke-dasharray: 255, 655; stroke-dashoffset: 0;"></path>
	<path fill="none" stroke="#f63c25" stroke-width="2" stroke-linecap="round" stroke-linejoin="round" stroke-miterlimit="10" d="   M53.9,22.6h40.9V23c0,6.2-5.1,11.3-11.3,11.3H60V58" style="stroke-dasharray: 107, 507; stroke-dashoffset: 0;"></path>
	
		<path fill="none" stroke="#f63c25" stroke-width="2" stroke-linecap="round" stroke-linejoin="round" stroke-miterlimit="10" d="M35,64.1L12.4,101L25.8,101L45,69.9" style="stroke-dasharray: 94, 494; stroke-dashoffset: 0;"></path>
	<path fill="none" stroke="#f63c25" stroke-width="2" stroke-miterlimit="10" d="M46.8,101L50.1,101" style="stroke-dasharray: 4, 404; stroke-dashoffset: 0;"></path>
	<path fill="none" stroke="#f63c25" stroke-width="2" stroke-miterlimit="10" d="M53.4,101L56.7,101" style="stroke-dasharray: 4, 404; stroke-dashoffset: 0;"></path>
	<path fill="none" stroke="#f63c25" stroke-width="2" stroke-miterlimit="10" d="M59.9,101L63.2,101" style="stroke-dasharray: 4, 404; stroke-dashoffset: 0;"></path>
</g>
</svg>