<svg xmlns="http://www.w3.org/2000/svg" xmlns:xlink="http://www.w3.org/1999/xlink" id="Layer_1" x="0px" y="0px" viewBox="0 0 140.2 102" xml:space="preserve" height="100%" width="100%">
<g>
	<path fill="none" stroke="#f63c25" stroke-width="2" stroke-linecap="round" stroke-linejoin="round" stroke-miterlimit="10" d="   M70.7,101c0,0,18.8-13.2,37-30.2c5.2-4.9,9.8-10.5,13.4-16.7c18.9-32.6-5.4-48.2-10.1-50.5c-18.9-8.9-40.3,8.5-40.3,8.5   S49.3-5.4,30.4,3.5c-4.7,2.3-29,17.9-10.1,50.5c3.6,6.2,8.2,11.8,13.4,16.7C51.9,87.8,70.7,101,70.7,101z" style="stroke-dasharray: 342, 742; stroke-dashoffset: 0;"></path>
	
		<path fill="none" stroke="#f63c25" stroke-width="2" stroke-linecap="round" stroke-linejoin="round" stroke-miterlimit="10" d="M1,53.9L43.6,53.9L54.8,30.8L70.7,71.6L84.9,22.6L93.4,51L101.3,40.3L107.1,51L139.2,51" style="stroke-dasharray: 251, 651; stroke-dashoffset: 0;"></path>
</g>
</svg>