<svg xmlns="http://www.w3.org/2000/svg" xmlns:xlink="http://www.w3.org/1999/xlink" id="Layer_1" x="0px" y="0px" viewBox="0 0 53 55" style="enable-background:new 0 0 53 55;" xml:space="preserve">
<style type="text/css">
	.st0{fill:#FFFFFF;}
</style>
<title>icon1</title>
<path class="st0" d="M32.4,53.1c-9.8-1-19.3-4.2-27.8-9.3l-2.5-1.5c0.3-0.9,0.6-1.8,0.8-2.7C2.9,39.3,3,39,3.1,38.7  c0.2-0.8,0.4-2,0.6-3.5c0.3-1.9,0.7-3.8,1.2-5.7l5.4-14.2c0.1-0.3,0.2-0.6,0.3-1c0.2-0.9,0.6-1.7,1.2-2.4c0.4-0.3,0.7-0.5,1.2-0.7  l0.1-0.1L15,9.7c-0.1,0.7-0.2,1.5-0.2,2.3c0,3.3,1.3,6.4,3.7,8.7c0,0.2,0,0.4,0,0.6c0,1.2,0.1,2.4,0.3,3.5c0.2,1.3,0.2,2.6,0.3,4  c0.1,3.6-1.3,7.1-3.9,9.7l1.2,1.4c2-1.8,3.3-4.1,4-6.7c0.5,0,1.1,0,1.6,0.1c1,0.2,1.9,0.7,2.7,1.3c-0.5,0.8-0.9,1.6-1.2,2.5l1.7,0.6  c1.2-3.7,4.7-6.4,9-7s8.4,0.9,10.6,4l1.5-1.1c-0.9-1.3-2.1-2.4-3.5-3.2c2.7-2.3,6.3-3,9.7-1.9l0.6-1.8c-4.2-1.4-8.8-0.3-12,2.8  c-2.3-0.9-4.8-1.1-7.2-0.7c-3.1,0.4-6,2-8.2,4.3c-1-0.8-2.2-1.4-3.4-1.6c-0.5-0.1-1.1-0.1-1.6-0.2c0.1-0.8,0.2-1.6,0.2-2.5  c0-1.4-0.1-2.8-0.3-4.1c-0.1-0.8-0.2-1.6-0.2-2.5c1.9,1.2,4,1.8,6.2,1.8C33.2,24,38.4,18.6,38.3,12c0,0,0,0,0,0  c0-6.6-5.2-11.9-11.8-12C22.1,0,18,2.6,16.1,6.6l0,0l-3.6,2.8l-0.3,0.2c-0.5,0.3-1.1,0.6-1.5,1c-0.8,0.9-1.4,2-1.7,3.2  c-0.1,0.3-0.2,0.6-0.3,0.9L3.2,28.9c-0.6,2-1,4-1.3,6.1c-0.2,1.3-0.4,2.6-0.6,3.3c-0.1,0.3-0.1,0.5-0.2,0.8c-0.2,1-0.5,2.1-1,3  c-0.2,0.4-0.1,1,0.3,1.3l3.2,1.9c8.7,5.2,18.5,8.5,28.6,9.6C33,55,33.9,55,34.9,55c5.2,0,13.6-0.9,17.6-4.3l-1.2-1.4  C47.2,52.8,37,53.5,32.4,53.1z M26.6,1.9c5.5,0.1,10,4.6,10,10.1c0.5,5.5-3.6,10.4-9.1,10.9c-5.5,0.5-10.4-3.6-10.9-9.1  c-0.1-0.6-0.1-1.2,0-1.8C16.6,6.5,21,1.9,26.6,1.9z M26.6,17.6c3.1,0.1,5.6-2.4,5.7-5.4s-2.4-5.6-5.4-5.7c-3.1-0.1-5.6,2.4-5.7,5.4  c0,0,0,0.1,0,0.1C21.1,15,23.5,17.5,26.6,17.6C26.6,17.6,26.6,17.6,26.6,17.6z M26.6,8.3c2-0.1,3.8,1.5,3.8,3.6  c0.1,2-1.5,3.8-3.6,3.8s-3.8-1.5-3.8-3.6c0-0.1,0-0.1,0-0.2C23,10,24.6,8.4,26.6,8.3z"></path>
</svg>