<svg xmlns="http://www.w3.org/2000/svg" xmlns:xlink="http://www.w3.org/1999/xlink" id="Layer_1" x="0px" y="0px" viewBox="0 0 112.8 102" xml:space="preserve" height="100%" width="100%">
<g>
	<path fill="none" stroke="#f63c25" stroke-width="2" stroke-miterlimit="10" d="M4.7,20.1v-0.3c0-2.6,2.1-4.7,4.7-4.7h21.5   c2.6,0,4.7,2.1,4.7,4.7v0.3c0,2.6-2.1,4.7-4.7,4.7H9.4C6.8,24.8,4.7,22.7,4.7,20.1z" style="stroke-dasharray: 74, 474; stroke-dashoffset: 0;"></path>
	<path fill="none" stroke="#f63c25" stroke-width="2" stroke-miterlimit="10" d="M1,77.2v-1.8c0-13.1,10.6-23.8,23.8-23.8h46   c13.1,0,23.8,10.6,23.8,23.8v1.8c0,13.1-10.6,23.8-23.8,23.8h-46C11.6,101,1,90.4,1,77.2z" style="stroke-dasharray: 246, 646; stroke-dashoffset: 0;"></path>
	<path fill="none" stroke="#f63c25" stroke-width="2" stroke-miterlimit="10" d="M12.7,76.2A16,16 0,1,1 44.7,76.2A16,16 0,1,1 12.7,76.2" style="stroke-dasharray: 101, 501; stroke-dashoffset: 0;"></path>
	
		<path fill="none" stroke="#f63c25" stroke-width="2" stroke-linecap="round" stroke-linejoin="round" stroke-miterlimit="10" d="M55.2,60.3L74,60.3" style="stroke-dasharray: 19, 419; stroke-dashoffset: 0;"></path>
	
		<path fill="none" stroke="#f63c25" stroke-width="2" stroke-linecap="round" stroke-linejoin="round" stroke-miterlimit="10" d="M44.6,92.5L58,92.5" style="stroke-dasharray: 14, 414; stroke-dashoffset: 0;"></path>
	
		<path fill="none" stroke="#f63c25" stroke-width="2" stroke-linecap="round" stroke-linejoin="round" stroke-miterlimit="10" d="M28.7,76.2L52,92.2" style="stroke-dasharray: 29, 429; stroke-dashoffset: 0;"></path>
	
		<path fill="none" stroke="#f63c25" stroke-width="2" stroke-linecap="round" stroke-linejoin="round" stroke-miterlimit="10" d="M19.1,24.8L30,51.7" style="stroke-dasharray: 30, 430; stroke-dashoffset: 0;"></path>
	<path fill="none" stroke="#f63c25" stroke-width="2" stroke-linecap="round" stroke-linejoin="round" stroke-miterlimit="10" d="   M76.8,52.5l9.3-36.8l8.4,0.2c7.5,0,14.2-4.6,16.8-11.6l0.5-1.4c0.3-0.9-0.3-1.8-1.2-1.8H70" style="stroke-dasharray: 113, 513; stroke-dashoffset: 0;"></path>
</g>
</svg>