<svg xmlns="http://www.w3.org/2000/svg" xmlns:xlink="http://www.w3.org/1999/xlink" id="Layer_1" x="0px" y="0px" viewBox="0 0 55 55" style="enable-background:new 0 0 55 55;" xml:space="preserve">
<style type="text/css">
	.st0{fill:#FFFFFF;}
</style>
<title>icon2</title>
<path class="st0" d="M46.1,0v8.9h-3c-1.3-1.2-3.3-1.2-4.6,0h-22c-1.3-1.2-3.3-1.2-4.6,0h-3V0H0v23.1h8.9v-8.9h3  c0.2,0.2,0.4,0.3,0.6,0.4l4.3,25.1l0,0L19.7,55h15.7l2.8-15.2l0,0l4.3-25.1c0.2-0.1,0.4-0.3,0.6-0.4h3v8.9H55V0H46.1z M7.1,21.3H5.3  v-8.9H3.5v8.9H1.8V1.8h1.8v8.9h1.8V1.8h1.8V21.3z M10.8,12.4H8.9v-1.8h1.9C10.6,11.2,10.6,11.8,10.8,12.4z M37.4,10.6  c-0.1,0.2-0.1,0.5-0.1,0.7L37,12.4H18l-0.3-1.1c0-0.2,0-0.5-0.1-0.7L37.4,10.6z M27.5,31c-2.9,0-5.3-2.4-5.3-5.3V24  c0.1-2.9,2.6-5.2,5.6-5.1c2.8,0.1,5,2.3,5.1,5.1v1.8C32.8,28.7,30.4,31.1,27.5,31z M29.2,32.6c-0.2,0.5-0.5,1-1,1.3l-0.7,0.5  L26.8,34c-0.5-0.3-0.8-0.8-1-1.3C26.9,32.9,28,32.9,29.2,32.6L29.2,32.6z M27.5,16.9c-3.3,0-6.2,2.3-6.9,5.5l-2.1-8.2h18.1l-2.1,8.2  C33.7,19.1,30.8,16.9,27.5,16.9z M12.4,11.5c0-1,0.8-1.8,1.8-1.8s1.8,0.8,1.8,1.8c0,1-0.8,1.8-1.8,1.8  C13.2,13.3,12.4,12.5,12.4,11.5C12.4,11.5,12.4,11.5,12.4,11.5z M14.4,15.1c0.8-0.1,1.7-0.4,2.3-1l4.6,17.7l-3,5.5L14.4,15.1z   M33.8,53.2H21.1l-2.5-13.2l4.4-8l-0.3-1c0.4,0.3,0.8,0.6,1.2,0.8H24c0,1.4,0.7,2.7,1.9,3.5l1.7,1.1l1.7-1.1  c1.1-0.8,1.8-2.1,1.8-3.5h-0.1c0.4-0.2,0.8-0.5,1.2-0.8l-0.3,1l4.5,8L33.8,53.2z M36.8,37.3l-3-5.5l4.6-17.7c0.6,0.6,1.4,1,2.3,1  L36.8,37.3z M40.8,13.3c-1,0-1.8-0.8-1.8-1.8c0-1,0.8-1.8,1.8-1.8c1,0,1.8,0.8,1.8,1.8c0,0,0,0,0,0C42.6,12.5,41.8,13.3,40.8,13.3  C40.8,13.3,40.8,13.3,40.8,13.3L40.8,13.3z M46.1,12.4h-1.9c0.1-0.3,0.1-0.6,0.1-0.9c0-0.3-0.1-0.6-0.1-0.9h1.9V12.4z M53.2,21.3  h-1.8v-8.9h-1.8v8.9h-1.8V1.8h1.8v8.9h1.8V1.8h1.8V21.3z"></path>
</svg>